{"accessors":[{"name":"objapple_1_positions","componentType":5126,"count":8092,"min":[-28.691476821899414,-0.6381530165672302,-33.886653900146484],"max":[37.65159606933594,75.75099182128906,34.19770812988281],"type":"VEC3","bufferView":0,"byteOffset":0},{"name":"objapple_1_normals","componentType":5126,"count":8092,"min":[-4.3030219078063965,-5.134522914886475,-5.24921178817749],"max":[3.2289679050445557,5.245452880859375,6.119557857513428],"type":"VEC3","bufferView":0,"byteOffset":97104},{"name":"objapple_1_texcoords","componentType":5126,"count":8092,"min":[0.0025869999080896378,0.00002300000051036477],"max":[0.8754050135612488,0.9974640011787415],"type":"VEC2","bufferView":1,"byteOffset":0},{"name":"objapple_1_0_indices","componentType":5123,"count":40386,"min":[0],"max":[8091],"type":"SCALAR","bufferView":2,"byteOffset":0}],"asset":{"generator":"obj2gltf","version":"2.0"},"buffers":[{"name":"apple textured obj","byteLength":339716,"uri":"data:application/octet-stream;base64,"}],"bufferViews":[{"name":"bufferView_0","buffer":0,"byteLength":194208,"byteOffset":0,"byteStride":12,"target":34962},{"name":"bufferView_1","buffer":0,"byteLength":64736,"byteOffset":194208,"byteStride":8,"target":34962},{"name":"bufferView_2","buffer":0,"byteLength":80772,"byteOffset":258944,"target":34963}],"materials":[{"name":"QuadMesh1","pbrMetallicRoughness":{"baseColorFactor":[1,1,1,1],"metallicFactor":0,"roughnessFactor":0.9887},"emissiveFactor":[0,0,0],"alphaMode":"OPAQUE","doubleSided":false}],"meshes":[{"name":"objapple_1","primitives":[{"attributes":{"POSITION":0,"NORMAL":1,"TEXCOORD_0":2},"indices":3,"material":0,"mode":4}]}],"nodes":[{"name":"objapple","mesh":0}],"scene":0,"scenes":[{"nodes":[0]}]}
