{"accessors":[{"name":"Orange-Mesh_positions","componentType":5126,"count":834,"min":[-1,-0.9751030206680298,-1],"max":[1,0.9880459904670715,1],"type":"VEC3","bufferView":0,"byteOffset":0},{"name":"Orange-Mesh_texcoords","componentType":5126,"count":834,"min":[0,0],"max":[1,1],"type":"VEC2","bufferView":1,"byteOffset":0},{"name":"Orange-Mesh_0_indices","componentType":5123,"count":3744,"min":[0],"max":[703],"type":"SCALAR","bufferView":2,"byteOffset":0},{"name":"Orange-Mesh_1_indices","componentType":5123,"count":768,"min":[548],"max":[833],"type":"SCALAR","bufferView":2,"byteOffset":7488}],"asset":{"generator":"obj2gltf","version":"2.0"},"buffers":[{"name":"input","byteLength":25704,"uri":"data:application/octet-stream;base64,"}],"bufferViews":[{"name":"bufferView_0","buffer":0,"byteLength":10008,"byteOffset":0,"byteStride":12,"target":34962},{"name":"bufferView_1","buffer":0,"byteLength":6672,"byteOffset":10008,"byteStride":8,"target":34962},{"name":"bufferView_2","buffer":0,"byteLength":9024,"byteOffset":16680,"target":34963}],"materials":[{"name":"Skin","pbrMetallicRoughness":{"baseColorFactor":[0.5,0.5,0.5,1],"metallicFactor":0,"roughnessFactor":1},"emissiveFactor":[0,0,0],"alphaMode":"OPAQUE","doubleSided":false},{"name":"Stub","pbrMetallicRoughness":{"baseColorFactor":[0.5,0.5,0.5,1],"metallicFactor":0,"roughnessFactor":1},"emissiveFactor":[0,0,0],"alphaMode":"OPAQUE","doubleSided":false}],"meshes":[{"name":"Orange-Mesh","primitives":[{"attributes":{"POSITION":0,"TEXCOORD_0":1},"indices":2,"material":0,"mode":4},{"attributes":{"POSITION":0,"TEXCOORD_0":1},"indices":3,"material":1,"mode":4}]}],"nodes":[{"name":"Orange","mesh":0}],"scene":0,"scenes":[{"nodes":[0]}]}
