{"accessors":{"accessor_0":{"bufferView":"bufferView_0","byteOffset":0,"byteStride":0,"componentType":5126,"count":834,"min":[-1,-0.9751030206680298,-1],"max":[1,0.9880459904670715,1],"type":"VEC3"},"accessor_1":{"bufferView":"bufferView_0","byteOffset":10008,"byteStride":0,"componentType":5126,"count":834,"min":[0,0],"max":[1,1],"type":"VEC2"},"accessor_2":{"bufferView":"bufferView_1","byteOffset":0,"byteStride":0,"componentType":5123,"count":3744,"min":[0],"max":[703],"type":"SCALAR"},"accessor_3":{"bufferView":"bufferView_1","byteOffset":7488,"byteStride":0,"componentType":5123,"count":768,"min":[548],"max":[833],"type":"SCALAR"}},"asset":{"generator":"obj2gltf","profile":{"api":"WebGL","version":"1.0"},"version":"1.0","premultipliedAlpha":true},"buffers":{"buffer":{"byteLength":25704,"uri":"data:application/octet-stream;base64,","type":"arraybuffer"}},"bufferViews":{"bufferView_0":{"buffer":"buffer","byteLength":16680,"byteOffset":0,"target":34962},"bufferView_1":{"buffer":"buffer","byteLength":9024,"byteOffset":16680,"target":34963}},"extensionsUsed":[],"images":{"Color":{"name":"Color","uri":"data:image/jpeg;base64,"}},"materials":{"Skin":{"technique":"technique0","values":{"ambient":[0,0,0,1],"diffuse":[0,0,0,1],"emission":"texture_Color","specular":[1,0.689344,0.154515,1],"shininess":249.99997,"transparency":1}},"Stub":{"technique":"technique0","values":{"ambient":[0,0,0,1],"diffuse":[0,0,0,1],"emission":"texture_Color","specular":[0,0,0,1],"shininess":96.078431,"transparency":1}}},"meshes":{"Orange-Mesh":{"name":"Orange-Mesh","primitives":[{"attributes":{"POSITION":"accessor_0","TEXCOORD_0":"accessor_1"},"indices":"accessor_2","material":"Skin","mode":4},{"attributes":{"POSITION":"accessor_0","TEXCOORD_0":"accessor_1"},"indices":"accessor_3","material":"Stub","mode":4}]}},"nodes":{"Orange":{"name":"Orange","meshes":["Orange-Mesh"],"children":[],"matrix":[1,0,0,0,0,1,0,0,0,0,1,0,0,0,0,1]}},"samplers":{"sampler":{"magFilter":9729,"minFilter":9986,"wrapS":10497,"wrapT":10497}},"scene":"scene","scenes":{"scene":{"nodes":["Orange"]}},"textures":{"texture_Color":{"format":6407,"internalFormat":6407,"sampler":"sampler","source":"Color","target":3553,"type":5121}},"animations":{},"cameras":{},"programs":{"program0":{"attributes":["a_position","a_texcoord_0"],"fragmentShader":"fragmentShader0","vertexShader":"vertexShader0"}},"shaders":{"vertexShader0":{"type":35633,"uri":"data:text/plain;base64,"},"fragmentShader0":{"type":35632,"uri":"data:text/plain;base64,"}},"skins":{},"techniques":{"technique0":{"attributes":{"a_position":"position","a_texcoord_0":"texcoord_0"},"parameters":{"modelViewMatrix":{"semantic":"MODELVIEW","type":35676},"projectionMatrix":{"semantic":"PROJECTION","type":35676},"ambient":{"type":35666},"diffuse":{"type":35666},"emission":{"type":35678},"specular":{"type":35666},"shininess":{"type":5126},"transparency":{"type":5126},"position":{"semantic":"POSITION","type":35665},"texcoord_0":{"semantic":"TEXCOORD_0","type":35664}},"program":"program0","states":{"enable":[2884,2929]},"uniforms":{"u_modelViewMatrix":"modelViewMatrix","u_projectionMatrix":"projectionMatrix","u_ambient":"ambient","u_diffuse":"diffuse","u_emission":"emission","u_specular":"specular","u_shininess":"shininess","u_transparency":"transparency"}}}}
